<?xml version="1.0" encoding="UTF-8" standalone="no"?><!-- Generator: Gravit.io --><svg xmlns="http://www.w3.org/2000/svg" xmlns:xlink="http://www.w3.org/1999/xlink" style="isolation:isolate" viewBox="0 0 100 100" width="100pt" height="100pt"><defs><clipPath id="_clipPath_3d1k05pGJnSs04KlCbBnR9CYBi7jEakr"><rect width="100" height="100"/></clipPath></defs><g clip-path="url(#_clipPath_3d1k05pGJnSs04KlCbBnR9CYBi7jEakr)"><rect width="100" height="100" style="fill:rgb(0,0,0)" fill-opacity="0"/><linearGradient id="_lgradient_0" x1="0.07521833455199359" y1="0.2121004259874465" x2="1.081869236061302" y2="0.7689057026392785" gradientTransform="matrix(84.32,0,0,46.96,8.56,26.2)" gradientUnits="userSpaceOnUse"><stop offset="0%" stop-opacity="1" style="stop-color:rgb(255,0,64)"/><stop offset="100%" stop-opacity="0.92" style="stop-color:rgb(98,0,255)"/></linearGradient><path d=" M 40.4 63.96 L 40.4 63.96 Q 40.8 63.96 41.02 64.38 L 41.02 64.38 L 41.02 64.38 Q 41.24 64.8 41.24 65.48 L 41.24 65.48 L 41.24 65.48 Q 41.24 66.76 40.56 68 L 40.56 68 L 40.56 68 Q 39.2 70.48 36.98 71.82 L 36.98 71.82 L 36.98 71.82 Q 34.76 73.16 32.44 73.16 L 32.44 73.16 L 32.44 73.16 Q 30.08 73.16 28.48 72.42 L 28.48 72.42 L 28.48 72.42 Q 26.88 71.68 25.76 70.22 L 25.76 70.22 L 25.76 70.22 Q 24.64 68.76 23.6 66.36 L 23.6 66.36 L 23.6 66.36 Q 22.52 63.88 21.82 62.66 L 21.82 62.66 L 21.82 62.66 Q 21.12 61.44 20.36 60.88 L 20.36 60.88 L 20.36 60.88 Q 19.6 60.32 18.4 60.08 L 18.4 60.08 L 18.4 60.08 Q 13.96 59.2 11.26 55.68 L 11.26 55.68 L 11.26 55.68 Q 8.56 52.16 8.56 46.6 L 8.56 46.6 L 8.56 46.6 Q 8.56 40.52 10.78 35.88 L 10.78 35.88 L 10.78 35.88 Q 13 31.24 16.82 28.72 L 16.82 28.72 L 16.82 28.72 Q 20.64 26.2 25.28 26.2 L 25.28 26.2 L 25.28 26.2 Q 28.84 26.2 31.7 27.8 L 31.7 27.8 L 31.7 27.8 Q 34.56 29.4 36.24 32.5 L 36.24 32.5 L 36.24 32.5 Q 37.92 35.6 37.92 39.92 L 37.92 39.92 L 37.92 39.92 Q 37.92 44.96 36.4 49 L 36.4 49 L 36.4 49 Q 34.88 53.04 32.2 55.72 L 32.2 55.72 L 32.2 55.72 Q 29.52 58.4 26.04 59.52 L 26.04 59.52 L 26.04 59.52 Q 27.04 60.08 27.78 61.16 L 27.78 61.16 L 27.78 61.16 Q 28.52 62.24 29.36 64.28 L 29.36 64.28 L 29.36 64.28 Q 30.28 66.52 31.34 67.48 L 31.34 67.48 L 31.34 67.48 Q 32.4 68.44 33.96 68.44 L 33.96 68.44 L 33.96 68.44 Q 35.28 68.44 36.52 67.54 L 36.52 67.54 L 36.52 67.54 Q 37.76 66.64 39.32 64.6 L 39.32 64.6 L 39.32 64.6 Q 39.8 63.96 40.4 63.96 L 40.4 63.96 L 40.4 63.96 Z  M 21.6 55.6 L 21.6 55.6 Q 24.72 55.6 27.1 53.68 L 27.1 53.68 L 27.1 53.68 Q 29.48 51.76 30.76 48.34 L 30.76 48.34 L 30.76 48.34 Q 32.04 44.92 32.04 40.6 L 32.04 40.6 L 32.04 40.6 Q 32.04 35.84 30.04 33.38 L 30.04 33.38 L 30.04 33.38 Q 28.04 30.92 24.88 30.92 L 24.88 30.92 L 24.88 30.92 Q 21.84 30.92 19.46 32.86 L 19.46 32.86 L 19.46 32.86 Q 17.08 34.8 15.76 38.2 L 15.76 38.2 L 15.76 38.2 Q 14.44 41.6 14.44 45.92 L 14.44 45.92 L 14.44 45.92 Q 14.44 50.68 16.44 53.14 L 16.44 53.14 L 16.44 53.14 Q 18.44 55.6 21.6 55.6 L 21.6 55.6 L 21.6 55.6 Z  M 44.24 60.32 L 44.24 60.32 Q 42.44 60.32 41.3 58.66 L 41.3 58.66 L 41.3 58.66 Q 40.16 57 40.16 54.52 L 40.16 54.52 L 40.16 54.52 Q 40.16 51.52 40.56 49.02 L 40.56 49.02 L 40.56 49.02 Q 40.96 46.52 41.88 43.72 L 41.88 43.72 L 41.88 43.72 Q 42.28 42.52 43 42 L 43 42 L 43 42 Q 43.72 41.48 45.28 41.48 L 45.28 41.48 L 45.28 41.48 Q 46.16 41.48 46.5 41.76 L 46.5 41.76 L 46.5 41.76 Q 46.84 42.04 46.84 42.6 L 46.84 42.6 L 46.84 42.6 Q 46.84 42.92 46.4 44.76 L 46.4 44.76 L 46.4 44.76 Q 46 46.24 45.76 47.44 L 45.76 47.44 L 45.76 47.44 Q 44.96 51.64 44.96 53.04 L 44.96 53.04 L 44.96 53.04 Q 44.96 53.88 45.16 54.22 L 45.16 54.22 L 45.16 54.22 Q 45.36 54.56 45.8 54.56 L 45.8 54.56 L 45.8 54.56 Q 46.4 54.56 47.3 53.36 L 47.3 53.36 L 47.3 53.36 Q 48.2 52.16 49.22 49.72 L 49.22 49.72 L 49.22 49.72 Q 50.24 47.28 51.2 43.72 L 51.2 43.72 L 51.2 43.72 Q 51.52 42.52 52.18 42 L 52.18 42 L 52.18 42 Q 52.84 41.48 54.16 41.48 L 54.16 41.48 L 54.16 41.48 Q 55.08 41.48 55.44 41.7 L 55.44 41.7 L 55.44 41.7 Q 55.8 41.92 55.8 42.52 L 55.8 42.52 L 55.8 42.52 Q 55.8 43.52 54.8 48 L 54.8 48 L 54.8 48 Q 53.68 53.12 53.68 54.32 L 53.68 54.32 L 53.68 54.32 Q 53.68 55.08 54 55.5 L 54 55.5 L 54 55.5 Q 54.32 55.92 54.84 55.92 L 54.84 55.92 L 54.84 55.92 Q 55.64 55.92 56.74 54.94 L 56.74 54.94 L 56.74 54.94 Q 57.84 53.96 59.68 51.76 L 59.68 51.76 L 59.68 51.76 Q 60.16 51.2 60.76 51.2 L 60.76 51.2 L 60.76 51.2 Q 61.28 51.2 61.58 51.68 L 61.58 51.68 L 61.58 51.68 Q 61.88 52.16 61.88 53 L 61.88 53 L 61.88 53 Q 61.88 54.6 61.12 55.48 L 61.12 55.48 L 61.12 55.48 Q 59.4 57.6 57.42 58.96 L 57.42 58.96 L 57.42 58.96 Q 55.44 60.32 52.92 60.32 L 52.92 60.32 L 52.92 60.32 Q 51 60.32 50.1 58.84 L 50.1 58.84 L 50.1 58.84 Q 49.2 57.36 49.2 54.68 L 49.2 54.68 L 49.2 54.68 Q 48.52 57.4 47.16 58.86 L 47.16 58.86 L 47.16 58.86 Q 45.8 60.32 44.24 60.32 L 44.24 60.32 L 44.24 60.32 Z  M 63.88 38.84 L 63.88 38.84 Q 62.2 38.84 61.36 38.06 L 61.36 38.06 L 61.36 38.06 Q 60.52 37.28 60.52 35.88 L 60.52 35.88 L 60.52 35.88 Q 60.52 34.48 61.62 33.54 L 61.62 33.54 L 61.62 33.54 Q 62.72 32.6 64.36 32.6 L 64.36 32.6 L 64.36 32.6 Q 65.84 32.6 66.76 33.32 L 66.76 33.32 L 66.76 33.32 Q 67.68 34.04 67.68 35.36 L 67.68 35.36 L 67.68 35.36 Q 67.68 36.96 66.64 37.9 L 66.64 37.9 L 66.64 37.9 Q 65.6 38.84 63.88 38.84 L 63.88 38.84 L 63.88 38.84 Z  M 63.56 60.32 L 63.56 60.32 Q 60.96 60.32 59.78 58.48 L 59.78 58.48 L 59.78 58.48 Q 58.6 56.64 58.6 53.6 L 58.6 53.6 L 58.6 53.6 Q 58.6 51.8 59.06 48.98 L 59.06 48.98 L 59.06 48.98 Q 59.52 46.16 60.24 43.72 L 60.24 43.72 L 60.24 43.72 Q 60.6 42.44 61.2 41.96 L 61.2 41.96 L 61.2 41.96 Q 61.8 41.48 63.12 41.48 L 63.12 41.48 L 63.12 41.48 Q 65.16 41.48 65.16 42.84 L 65.16 42.84 L 65.16 42.84 Q 65.16 43.84 64.4 47.48 L 64.4 47.48 L 64.4 47.48 Q 63.44 51.88 63.44 53.44 L 63.44 53.44 L 63.44 53.44 Q 63.44 54.64 63.76 55.28 L 63.76 55.28 L 63.76 55.28 Q 64.08 55.92 64.84 55.92 L 64.84 55.92 L 64.84 55.92 Q 65.56 55.92 66.64 54.92 L 66.64 54.92 L 66.64 54.92 Q 67.72 53.92 69.52 51.76 L 69.52 51.76 L 69.52 51.76 Q 70 51.2 70.6 51.2 L 70.6 51.2 L 70.6 51.2 Q 71.12 51.2 71.42 51.68 L 71.42 51.68 L 71.42 51.68 Q 71.72 52.16 71.72 53 L 71.72 53 L 71.72 53 Q 71.72 54.6 70.96 55.48 L 70.96 55.48 L 70.96 55.48 Q 67 60.32 63.56 60.32 L 63.56 60.32 L 63.56 60.32 Z  M 91.76 51.2 L 91.76 51.2 Q 92.28 51.2 92.58 51.68 L 92.58 51.68 L 92.58 51.68 Q 92.88 52.16 92.88 53 L 92.88 53 L 92.88 53 Q 92.88 54.6 92.12 55.48 L 92.12 55.48 L 92.12 55.48 Q 90.36 57.56 88.26 58.94 L 88.26 58.94 L 88.26 58.94 Q 86.16 60.32 83.52 60.32 L 83.52 60.32 L 83.52 60.32 Q 81.48 60.32 79.9 59.56 L 79.9 59.56 L 79.9 59.56 Q 78.32 58.8 77.4 57.4 L 77.4 57.4 L 77.4 57.4 Q 75.12 60.28 72 60.28 L 72 60.28 L 72 60.28 Q 69.8 60.28 68.52 59 L 68.52 59 L 68.52 59 Q 67.24 57.72 67.24 55.6 L 67.24 55.6 L 67.24 55.6 Q 67.24 53.6 68.16 52.36 L 68.16 52.36 L 68.16 52.36 Q 69.08 51.12 70.76 51.12 L 70.76 51.12 L 70.76 51.12 Q 72.2 51.12 72.2 52.2 L 72.2 52.2 L 72.2 52.2 Q 72.2 52.48 72.12 53.2 L 72.12 53.2 L 72.12 53.2 Q 72 54.64 72 54.84 L 72 54.84 L 72 54.84 Q 72 56.04 73.04 56.04 L 73.04 56.04 L 73.04 56.04 Q 73.8 56.04 74.5 55.14 L 74.5 55.14 L 74.5 55.14 Q 75.2 54.24 75.66 52.68 L 75.66 52.68 L 75.66 52.68 Q 76.12 51.12 76.12 49.24 L 76.12 49.24 L 76.12 49.24 Q 76.12 47.8 75.76 46.82 L 75.76 46.82 L 75.76 46.82 Q 75.4 45.84 74.88 45.84 L 74.88 45.84 L 74.88 45.84 Q 74.44 45.84 74.24 46.06 L 74.24 46.06 L 74.24 46.06 Q 74.04 46.28 73.84 46.8 L 73.84 46.8 L 73.84 46.8 Q 73.6 47.44 73.2 47.82 L 73.2 47.82 L 73.2 47.82 Q 72.8 48.2 71.8 48.2 L 71.8 48.2 L 71.8 48.2 Q 70.92 48.2 70.4 47.58 L 70.4 47.58 L 70.4 47.58 Q 69.88 46.96 69.88 45.68 L 69.88 45.68 L 69.88 45.68 Q 69.88 43.64 71.12 42.48 L 71.12 42.48 L 71.12 42.48 Q 72.36 41.32 74.32 41.32 L 74.32 41.32 L 74.32 41.32 Q 76 41.32 77.36 42.14 L 77.36 42.14 L 77.36 42.14 Q 78.72 42.96 79.44 44.52 L 79.44 44.52 L 79.44 44.52 Q 80.64 42.92 82.14 42.12 L 82.14 42.12 L 82.14 42.12 Q 83.64 41.32 85.08 41.32 L 85.08 41.32 L 85.08 41.32 Q 86.64 41.32 87.46 42.04 L 87.46 42.04 L 87.46 42.04 Q 88.28 42.76 88.28 44.36 L 88.28 44.36 L 88.28 44.36 Q 88.28 46.16 87.6 47.18 L 87.6 47.18 L 87.6 47.18 Q 86.92 48.2 85.96 48.2 L 85.96 48.2 L 85.96 48.2 Q 85.08 48.2 84.76 47.84 L 84.76 47.84 L 84.76 47.84 Q 84.44 47.48 84.28 46.8 L 84.28 46.8 L 84.28 46.8 Q 84.2 46.32 84.04 46.08 L 84.04 46.08 L 84.04 46.08 Q 83.88 45.84 83.48 45.84 L 83.48 45.84 L 83.48 45.84 Q 83 45.84 82.46 46.74 L 82.46 46.74 L 82.46 46.74 Q 81.92 47.64 81.54 49.12 L 81.54 49.12 L 81.54 49.12 Q 81.16 50.6 81.16 52.2 L 81.16 52.2 L 81.16 52.2 Q 81.16 54.08 82.06 55.1 L 82.06 55.1 L 82.06 55.1 Q 82.96 56.12 84.52 56.12 L 84.52 56.12 L 84.52 56.12 Q 86.08 56.12 87.46 55.06 L 87.46 55.06 L 87.46 55.06 Q 88.84 54 90.68 51.76 L 90.68 51.76 L 90.68 51.76 Q 91.16 51.2 91.76 51.2 L 91.76 51.2 L 91.76 51.2 Z " fill="url(#_lgradient_0)"/></g></svg>